<svg xmlns="http://www.w3.org/2000/svg" viewBox="0 0 205.33 150.67">
  <path fill="#333" d="M3.04 111.89v14.93h3.48c2.35 0 4.16-.65 5.41-1.96 1.25-1.3 1.88-3.17 1.88-5.62 0-1.22-.22-2.34-.65-3.35a6.71 6.71 0 0 0-1.83-2.59 5.45 5.45 0 0 0-1.98-1.08 12.2 12.2 0 0 0-3.3-.33zm-3.05-3.03h6.2c1.6 0 2.96.17 4.08.5a8.3 8.3 0 0 1 2.98 1.59c1.2 1 2.13 2.23 2.79 3.69.66 1.45 1 3.01 1 4.66 0 1.84-.37 3.52-1.1 5.04a9.55 9.55 0 0 1-3.1 3.71 9.09 9.09 0 0 1-2.87 1.36c-1.03.26-2.57.4-4.64.4H-.01zM31.41 121.66c0-1.43-.51-2.68-1.54-3.75a4.75 4.75 0 0 0-3.5-1.6c-1.45 0-2.68.53-3.7 1.6a5.59 5.59 0 0 0-1.53 4c0 1.51.5 2.79 1.5 3.83a4.94 4.94 0 0 0 3.67 1.54 4.7 4.7 0 0 0 3.56-1.64 5.61 5.61 0 0 0 1.54-3.98zm.08 6.77c-.03.11-.6.43-1.7.98-1.1.52-2.28.79-3.54.79a8.19 8.19 0 0 1-8.23-8.37c0-2.4.8-4.4 2.4-6a8.1 8.1 0 0 1 6-2.44c1.23 0 2.37.26 3.4.77 1.06.5 1.6.8 1.63.9l-.04-1.34h3v16.08h-3zM36.75 129.8h3.04v-20.94h-3.04zM43.18 113.72h3.02l-.12 1.5c-.02-.13.52-.46 1.62-1a7.76 7.76 0 0 1 3.5-.83 8.22 8.22 0 0 1 8.4 8.44 8.21 8.21 0 0 1-8.25 8.37 8.1 8.1 0 0 1-3.54-.77c-1.06-.51-1.67-1.02-1.84-1.52h.23v6.73h-3.02zm3.02 7.94c0 1.55.5 2.88 1.52 3.98a4.74 4.74 0 0 0 3.57 1.64c1.41 0 2.63-.5 3.64-1.54a5.3 5.3 0 0 0 1.52-3.83c0-1.6-.51-2.93-1.54-4a4.9 4.9 0 0 0-3.69-1.6 4.7 4.7 0 0 0-3.5 1.62 5.25 5.25 0 0 0-1.52 3.73zM61.15 108.86h3.02l-.1 5.86c0-.11.44-.36 1.28-.73a7.06 7.06 0 0 1 2.86-.56c2.27 0 3.94.66 5 1.98 1.07 1.32 1.6 3.4 1.6 6.23v8.16H71.8v-8.19c0-2.04-.28-3.42-.83-4.14-.56-.72-1.51-1.08-2.86-1.08-.78 0-1.45.15-2.02.45-.57.3-1.02.73-1.35 1.3-.2.34-.34.76-.44 1.22-.08.46-.12 1.33-.12 2.6v7.84h-3.02zM90.05 121.66c0-1.43-.51-2.68-1.54-3.75a4.76 4.76 0 0 0-3.5-1.6c-1.45 0-2.68.53-3.7 1.6a5.59 5.59 0 0 0-1.53 4c0 1.51.5 2.79 1.5 3.83a4.95 4.95 0 0 0 3.67 1.54 4.7 4.7 0 0 0 3.56-1.64 5.61 5.61 0 0 0 1.54-3.98zm.09 6.77c-.04.11-.6.43-1.71.98-1.1.52-2.28.79-3.54.79a8.18 8.18 0 0 1-8.23-8.37c0-2.4.8-4.4 2.4-6a8.1 8.1 0 0 1 6-2.44c1.23 0 2.37.26 3.4.77 1.06.5 1.6.8 1.63.9l-.04-1.34h3v16.08h-3zM119.83 115.14a8.96 8.96 0 0 0-2.96-2.8 7.28 7.28 0 0 0-3.48-.8c-2.04 0-3.8.76-5.25 2.28a7.55 7.55 0 0 0-2.19 5.42c0 2.25.72 4.14 2.17 5.67a7.01 7.01 0 0 0 5.27 2.29 7.4 7.4 0 0 0 3.44-.8c1.04-.52 2-1.4 2.87-2.62h3.55c-1.27 2.32-2.7 3.97-4.32 4.96a10.2 10.2 0 0 1-5.41 1.46c-3.06 0-5.62-1.05-7.67-3.15a10.73 10.73 0 0 1-3.08-7.83c0-1.46.27-2.84.83-4.15.55-1.32 1.36-2.5 2.44-3.56a10 10 0 0 1 3.35-2.25c1.25-.51 2.59-.77 4.02-.77 2.08 0 3.95.51 5.6 1.52 1.66 1.02 3.11 2.72 4.36 5.13zM137.05 121.66c0-1.43-.52-2.68-1.54-3.75a4.76 4.76 0 0 0-3.5-1.6c-1.45 0-2.69.53-3.71 1.6a5.59 5.59 0 0 0-1.52 4c0 1.51.5 2.79 1.5 3.83a4.94 4.94 0 0 0 3.66 1.54 4.7 4.7 0 0 0 3.57-1.64 5.62 5.62 0 0 0 1.54-3.98zm.08 6.77c-.03.11-.6.43-1.7.98-1.1.52-2.29.79-3.55.79a8.18 8.18 0 0 1-8.23-8.37c0-2.4.8-4.4 2.4-6a8.1 8.1 0 0 1 6-2.44c1.23 0 2.37.26 3.41.77 1.06.5 1.6.8 1.63.9l-.04-1.34h3v16.08h-3zM145.32 108.86v6.82h-.16c.3-.53.97-1.04 2-1.54 1.04-.5 2.2-.75 3.48-.75 2.25 0 4.15.8 5.72 2.43a8.21 8.21 0 0 1 2.36 5.92c0 2.4-.8 4.42-2.4 6.04a8.1 8.1 0 0 1-6 2.42c-1.2 0-2.29-.24-3.29-.71a6.83 6.83 0 0 1-1.7-.98v1.3h-3.03v-20.95zm0 13.05c0 1.44.5 2.7 1.52 3.77a4.72 4.72 0 0 0 3.5 1.6c1.45 0 2.68-.53 3.7-1.6a5.62 5.62 0 0 0 1.53-4.02c0-1.5-.5-2.76-1.52-3.8a4.91 4.91 0 0 0-7.23.07 5.66 5.66 0 0 0-1.5 3.98zM160.33 129.8h3.04v-20.94h-3.04zM169.89 113.1h-3.05v-4.24h3.05zm-3.05.62h3.05v16.08h-3.05zM173.34 113.72h2.98l-.06.92c.04-.1.49-.32 1.33-.67.85-.36 1.8-.54 2.88-.54a7.3 7.3 0 0 1 3.17.66 5.6 5.6 0 0 1 2.27 1.94c.37.62.64 1.3.8 2.06.18.77.26 1.88.26 3.34v8.37h-3.02v-8.94c0-1.62-.3-2.77-.88-3.45-.57-.68-1.5-1.02-2.81-1.02-.78 0-1.45.15-2.02.45-.57.3-1.02.73-1.35 1.3-.2.34-.35.76-.44 1.22-.09.46-.13 1.33-.13 2.6v7.84h-2.98zM193.13 129.9c.31 1 .8 1.7 1.45 2.11.67.43 1.49.65 2.46.65 1.54 0 2.77-.51 3.69-1.52a5.92 5.92 0 0 0 1.4-4.15h.43a4.38 4.38 0 0 1-2.08 2.33c-1 .54-2.1.82-3.31.82-2.41 0-4.41-.8-6-2.42a8.17 8.17 0 0 1-2.4-6c0-2.36.78-4.34 2.36-5.94a7.88 7.88 0 0 1 5.85-2.42 7.8 7.8 0 0 1 3.52.75c1 .5 1.54.8 1.63.9v-1.3h3v13.05c0 2.75-.71 4.92-2.13 6.5-1.4 1.6-3.34 2.4-5.81 2.4a8.1 8.1 0 0 1-4.71-1.38c-1.32-.92-2.24-2.37-2.75-4.37zm-1.2-8.26c0 1.6.5 2.93 1.5 4a4.75 4.75 0 0 0 7.13 0 5.68 5.68 0 0 0 .02-7.75 4.81 4.81 0 0 0-7.15-.08c-1 1.02-1.5 2.3-1.5 3.83z"/>
  <path fill="#f60" d="M31.12 139h1.02l3.27 8.84 3.3-8.83h1.01l-3.9 10.35h-.8zM41.32 140.63h-1v-1.62h1zm-1 .92h1v7.81h-1zM48.07 140.63h-1v-1.62h1zm-1 .92h1v7.81h-1zM49.7 141.55h.97v.87c.31-.34.67-.6 1.08-.77.4-.18.86-.27 1.38-.27.58 0 1.09.11 1.54.33.44.21.8.51 1.06.9.18.3.3.62.37 1 .09.37.13.93.13 1.67v4.08h-.98v-4.38c0-.92-.18-1.6-.54-2.02-.35-.41-.91-.62-1.69-.62-.46 0-.86.1-1.2.27a2.15 2.15 0 0 0-1.1 1.52c-.03.28-.05.75-.05 1.42v3.81h-.96zM57.34 146.9h1.02v.02c0 .5.13.9.42 1.23.27.32.62.48 1.04.48.38 0 .71-.12.98-.38.26-.24.4-.56.4-.93 0-.38-.11-.67-.32-.9-.2-.23-.58-.45-1.13-.64-.86-.3-1.42-.62-1.68-.94-.27-.33-.4-.77-.4-1.31 0-.61.22-1.13.67-1.55.44-.42.98-.64 1.6-.64.67 0 1.2.2 1.59.58.4.38.61.9.64 1.56H61.1a1.2 1.2 0 0 0-.36-.85c-.2-.2-.49-.31-.85-.31-.33 0-.61.11-.83.33-.21.22-.32.5-.32.83 0 .23.05.42.13.59.1.15.25.3.46.44.19.11.47.22.83.33.36.11.6.2.73.25.48.2.84.49 1.06.83.24.33.36.77.36 1.31a2.2 2.2 0 0 1-.71 1.67 2.5 2.5 0 0 1-1.8.67c-.72 0-1.3-.24-1.76-.71a2.83 2.83 0 0 1-.7-1.96zM64.17 149.36v-6.81H62.7v-1h1.48V139h1v2.54h1.5v1h-1.5v6.81zM74.09 145.4c0-.83-.3-1.55-.9-2.17a2.76 2.76 0 0 0-2.04-.93c-.85 0-1.57.3-2.17.93a3.2 3.2 0 0 0-.87 2.3 3.04 3.04 0 0 0 3 3.1c.8 0 1.5-.31 2.08-.94.6-.63.9-1.4.9-2.29zm0 2.73c-.32.45-.75.8-1.3 1.06-.52.25-1.1.38-1.7.38a3.84 3.84 0 0 1-2.88-1.17 4.03 4.03 0 0 1-1.14-2.92 4.01 4.01 0 0 1 4.1-4.12 3.62 3.62 0 0 1 2.92 1.44v-1.25h.98v7.81h-.98zM76.67 149.36h1v-10.35h-1zM79.3 149.36h1v-10.35h-1zM89.6 145.75h-7.06a3 3 0 0 0 .92 2.09c.55.53 1.25.8 2.08.8a2.85 2.85 0 0 0 2.67-1.76h1.14a4.6 4.6 0 0 1-1.52 2.02c-.65.46-1.4.69-2.27.69a3.9 3.9 0 0 1-2.9-1.21 4.1 4.1 0 0 1-1.16-2.94c0-1.19.38-2.17 1.15-2.96a4 4 0 0 1 2.95-1.16 3.7 3.7 0 0 1 2.88 1.23c.75.8 1.12 1.85 1.12 3.14zm-1.1-.83a3.59 3.59 0 0 0-1.06-1.98 2.88 2.88 0 0 0-1.98-.66c-.75 0-1.4.24-1.92.7a3.13 3.13 0 0 0-.98 1.94zM91.77 149.36h-1.02v-7.81h.94v.9a2.2 2.2 0 0 1 1.83-1.02v1.08c-.62.05-1.08.24-1.35.56-.27.32-.4.84-.4 1.56zM101.02 145.4c0-.83-.3-1.55-.9-2.17a2.76 2.76 0 0 0-2.04-.93c-.85 0-1.57.3-2.17.93a3.2 3.2 0 0 0-.87 2.3 3.03 3.03 0 0 0 3 3.1c.8 0 1.5-.31 2.08-.94.6-.63.9-1.4.9-2.29zm0 2.73c-.33.45-.75.8-1.3 1.06-.53.25-1.1.38-1.7.38a3.84 3.84 0 0 1-2.88-1.17 4.03 4.03 0 0 1-1.15-2.92 4.01 4.01 0 0 1 4.1-4.12 3.63 3.63 0 0 1 2.93 1.44v-1.25h.97v7.81h-.97zM104.6 149.36h-1.03v-7.81h.94v.9a2.2 2.2 0 0 1 1.83-1.02v1.08c-.62.05-1.07.24-1.35.56-.27.32-.4.84-.4 1.56zM112.72 149.36h-.96v-6.94h-1.04v-.87h1v-.23c0-.82.2-1.43.62-1.84.42-.4 1.07-.6 1.94-.6h.08v.92c-.6 0-1.02.12-1.27.35-.25.22-.37.62-.37 1.17v.23h1.64v.87h-1.64zM116.35 149.36h-1.02v-7.81h.94v.9c.25-.35.52-.6.8-.76.3-.16.64-.25 1.03-.27v1.09c-.63.05-1.08.24-1.35.56-.27.32-.4.84-.4 1.56zM125.6 145.4c0-.83-.3-1.55-.9-2.17a2.76 2.76 0 0 0-2.04-.93c-.85 0-1.57.3-2.17.93a3.2 3.2 0 0 0-.87 2.3 3.04 3.04 0 0 0 3 3.1c.8 0 1.5-.31 2.08-.94.6-.63.9-1.4.9-2.29zm0 2.73c-.32.45-.75.8-1.3 1.06-.52.25-1.1.38-1.7.38a3.84 3.84 0 0 1-2.88-1.17 4.03 4.03 0 0 1-1.14-2.92 4.01 4.01 0 0 1 4.1-4.12 3.62 3.62 0 0 1 2.92 1.44v-1.25h.98v7.81h-.98zM134.3 142.75a3.23 3.23 0 0 1 2.77-1.37c1.07 0 1.84.32 2.31.96.48.64.73 1.67.73 3.08v3.94h-.96v-4.15c0-1.04-.18-1.77-.52-2.2-.33-.45-.89-.67-1.67-.67-.44 0-.83.1-1.16.27-.34.18-.6.45-.82.8-.11.2-.2.44-.25.72-.05.28-.08.75-.08 1.42v3.81h-.94v-4.38c0-.9-.18-1.56-.56-2-.36-.42-.92-.64-1.67-.64-.45 0-.86.1-1.2.27a2.15 2.15 0 0 0-1.09 1.52c-.04.28-.06.75-.06 1.42v3.81h-.98v-7.81h.98v.87c.3-.34.66-.6 1.06-.77.4-.18.86-.27 1.38-.27.6 0 1.13.13 1.62.37.49.26.86.59 1.1 1zM142.4 149.36v-6.81h-1.47v-1h1.48V139h1v2.54h1.5v1h-1.5v6.81zM146.71 140.63h-1v-1.62h1zm-1 .92h1v7.81h-1zM154.96 145.53c0-.89-.3-1.65-.9-2.28a2.75 2.75 0 0 0-2.08-.95 3.04 3.04 0 0 0-3 3.1c0 .92.3 1.69.87 2.31.6.62 1.32.92 2.17.92.76 0 1.44-.3 2.04-.92.6-.62.9-1.35.9-2.18zm-.04-2.75V139h1.02v10.35h-1.02v-1.19c-.35.45-.79.8-1.32 1.04-.51.24-1.06.36-1.64.36a4.05 4.05 0 0 1-4.02-4.13 3.97 3.97 0 0 1 4.02-4.08 3.67 3.67 0 0 1 2.96 1.42zM165.2 145.75h-7.06a3 3 0 0 0 .91 2.09c.55.53 1.25.8 2.09.8a2.85 2.85 0 0 0 2.66-1.76h1.15a4.59 4.59 0 0 1-1.52 2.02c-.66.46-1.41.69-2.27.69a3.9 3.9 0 0 1-2.9-1.21 4.1 4.1 0 0 1-1.17-2.94c0-1.19.38-2.17 1.15-2.96a4 4 0 0 1 2.96-1.16 3.7 3.7 0 0 1 2.87 1.23c.75.8 1.13 1.85 1.13 3.14zm-1.1-.83a3.59 3.59 0 0 0-1.07-1.98 2.88 2.88 0 0 0-1.98-.66c-.75 0-1.39.24-1.91.7a3.13 3.13 0 0 0-.98 1.94zM166.36 141.55h.96v.87a3.37 3.37 0 0 1 2.46-1.04c.58 0 1.1.11 1.54.33.45.21.8.51 1.07.9.17.3.3.62.37 1 .08.37.13.93.13 1.67v4.08h-.98v-4.38c0-.92-.19-1.6-.55-2.02-.34-.41-.9-.62-1.68-.62-.46 0-.87.1-1.21.27a2.15 2.15 0 0 0-1.08 1.52c-.05.28-.07.75-.07 1.42v3.81h-.96z"/>
  <path fill="#333" fill-rule="evenodd" d="M130.71 60.87h-4.96v4.97h4.96zm-56 9.34h-4.96v4.97h4.97zm0 7.11h-4.96v4.97h4.97zm0 7.39h-4.96v4.97h4.97zm0-21.96h-4.96v4.97h4.97zm31.63-23.56h-4.97v4.97h4.97zm0 7.45h-4.97v4.97h4.97zm0 7.12h-4.97v4.97h4.97zm0 7.39h-4.97v4.96h4.97zm0 7.45h-4.97v4.97h4.97zm0 7.11h-4.97v4.97h4.97zm0 7.39h-4.97v4.97h4.97zm24.37-.27h-4.96v4.97h4.96zm0-7.12h-4.96v4.97h4.96zm0-7.45h-4.96v4.97h4.96v-4.97"/>
  <path fill="#f60" fill-rule="evenodd" d="M117.96 1.25h-8.86v8.86h8.86V7.7h29.06a2.7 2.7 0 0 1 2.69 2.69V90.8a2.7 2.7 0 0 1-2.69 2.7h-6.37V55.74l-4.16-1.65-14.64-5.79-4.16-1.64V93.5h-3.5V25.86l-10.52 4.16-8.14 3.23-4.17 1.64v58.62h-3.21V54.16H62.63v39.35H57a2.7 2.7 0 0 1-2.69-2.7V10.4A2.7 2.7 0 0 1 57 7.69h18.85V3.68H57a6.73 6.73 0 0 0-6.71 6.72V90.8c0 3.7 3.02 6.72 6.71 6.72h9.8v-39.2h17.19v39.2h11.55V37.95l14.5-5.74v65.32h11.82V53.01l14.64 5.79v38.73h10.53c3.7 0 6.71-3.02 6.71-6.72V10.4c0-3.7-3.02-6.72-6.7-6.72h-29.07V1.25"/>
  <path fill="#f60" fill-rule="evenodd" d="M83.84 7.07h4.5v4.16l-.93.14-4.06-.8-.83-.17V7.07h-.84v3.16l-.84-.16v-3h-.83V9.9l-.84-.17V7.07h-.84v2.5l-.84-.17V7.07h-.83v2.16l-1.13-.22V2.36l1.13-.22V4.3h.83V1.97l.84-.17v2.5h.84V1.64l.84-.17V4.3h.83v-3l.84-.16V4.3h.84V.97l.83-.16L87.41 0l.93.14V4.3h-4.5zm10.81-2.21V3.73h-4.3l-.3 1.12h-5.3l.02.84-.02.83h5.3l.3 1.12h4.3zm3.2 0h-2.78v.57h2.77zm0-1.13h-2.78v.57h2.77zm0-1.13h-2.78v.56h2.77zm-2.78-.54h2.77V.96h-9.06V4.3h.83l.16-.57.15-.57h4.73v-1.1zm2.77 4.45h-2.77v-.57h2.77zm0 1.13h-2.77v-.57h2.77zm0 1.13h-2.77v-.56h2.77zm-2.77.54h2.77v1.1h-9.06V7.07h.83l.16.57.15.57h4.73v1.1h.42"/>
</svg>
