<svg xmlns="http://www.w3.org/2000/svg" viewBox="0 0 197.33 152">
  <g fill-rule="evenodd">
    <path fill="#fff" d="M132.2 62.13h-5.04v4.9h5.05zm-56.02 9.3h-5.04v4.9h5.04zm0 7.16h-5.04v4.91h5.04zm0 7.3h-5.04v5.05h5.04zm0-21.9h-5.04v4.9h5.04zm31.6-23.64h-4.92v5.05h4.92zm0 7.57h-4.92v4.91h4.92zm0 7.04h-4.92V60h4.92zm0 7.43h-4.92v4.91h4.92zm0 7.44h-4.92v4.91h4.92zm0 7.03h-4.92v5.05h4.92zm0 7.44h-4.92v5.04h4.92zm24.43-.27h-5.05v4.91h5.05zm0-7.17h-5.05v5.05h5.05zm0-7.43h-5.05v5.04h5.05z"/>
    <path fill="#f60" d="M119.33 2.51h-8.76v8.77h8.76v-2.4h29.08c1.45 0 2.78 1.2 2.78 2.66V92c0 1.46-1.33 2.66-2.78 2.66h-6.38V56.95l-4.11-1.6-14.6-5.84-4.26-1.59v46.74h-3.45V27.07l-10.48 4.12-8.1 3.32-4.25 1.6v58.55h-3.2v-39.3H64.1v39.3h-5.7A2.66 2.66 0 0 1 55.72 92V11.54c0-1.46 1.2-2.65 2.66-2.65h18.85V4.9H58.39a6.66 6.66 0 0 0-6.64 6.64V92a6.69 6.69 0 0 0 6.64 6.77h9.82v-39.3h17.26v39.3h11.56V39.16l14.46-5.71v65.32h11.82v-44.6l14.6 5.83v38.77h10.5a6.8 6.8 0 0 0 6.77-6.77V11.54a6.77 6.77 0 0 0-6.77-6.64h-29.08z"/>
    <path fill="#fff" d="M109.41 110.83a9.6 9.6 0 0 0-7 2.87 10.02 10.02 0 0 0-3.1 7.3c0 2.98.98 5.46 2.92 7.45a9.8 9.8 0 0 0 7.29 2.98c1.9 0 3.6-.46 5.13-1.38a9.97 9.97 0 0 0 3.64-3.91h-2.31a8.18 8.18 0 0 1-2.89 2.55c-1.1.58-2.34.86-3.71.86-2.22 0-4.1-.82-5.67-2.46a8.5 8.5 0 0 1-2.32-6.05c0-2.25.77-4.2 2.33-5.83a7.55 7.55 0 0 1 5.66-2.44c1.4 0 2.66.28 3.76.87a8.7 8.7 0 0 1 2.97 2.71h2.34a9.92 9.92 0 0 0-9.04-5.52zm-108.93.4v19.8h4.76c2.02 0 3.52-.12 4.49-.38a8.41 8.41 0 0 0 2.7-1.26 9.07 9.07 0 0 0 2.93-3.52 10.97 10.97 0 0 0 1.04-4.78c0-1.57-.32-3.04-.95-4.42a9.85 9.85 0 0 0-2.63-3.5 7.7 7.7 0 0 0-2.8-1.48c-1.06-.31-2.36-.46-3.91-.46zm35.91 0v19.8h1.92v-19.8zm22.58 0v19.8h1.89v-7.28c0-1.3.05-2.2.13-2.71.1-.53.28-1 .51-1.4.38-.66.9-1.16 1.55-1.5a4.78 4.78 0 0 1 2.3-.53c1.53 0 2.62.42 3.28 1.28.65.84.98 2.34.98 4.51v7.63h1.89v-7.6c0-2.7-.48-4.65-1.44-5.85-.97-1.2-2.5-1.8-4.6-1.8a6.4 6.4 0 0 0-2.61.5 5.4 5.4 0 0 0-1.99 1.54v-6.6zm79.52 0v19.8h1.89v-2.25c.77.88 1.6 1.55 2.52 2a7.1 7.1 0 0 0 3.05.65c2.24 0 4.11-.75 5.6-2.26a7.72 7.72 0 0 0 2.23-5.63c0-2.17-.73-4-2.19-5.52a7.1 7.1 0 0 0-5.33-2.27c-1.19 0-2.27.22-3.22.69a7.97 7.97 0 0 0-2.66 2.15v-7.36zm17.66 0v19.8h1.92v-19.8zm5.06 0v3.08h1.92v-3.08zM2.4 113.12h3.57c1.52 0 2.69.12 3.49.36.8.24 1.51.64 2.16 1.2a7.44 7.44 0 0 1 1.98 2.76c.47 1.1.7 2.3.7 3.6 0 2.6-.68 4.6-2.04 6-1.36 1.42-3.3 2.13-5.82 2.13H2.4zm186.25 2.6a7.6 7.6 0 0 0-7.66 7.8 7.68 7.68 0 0 0 7.83 7.85c1.12 0 2.14-.24 3.06-.74a7.69 7.69 0 0 0 2.48-2.25v.4c0 1.9-.52 3.4-1.55 4.54a5.25 5.25 0 0 1-4.1 1.7 5.03 5.03 0 0 1-2.77-.73 3.72 3.72 0 0 1-1.58-2.04h-2.23a5.6 5.6 0 0 0 2.35 3.36 7.45 7.45 0 0 0 4.37 1.27c2.3 0 4.1-.73 5.42-2.2 1.3-1.47 1.96-3.51 1.96-6.12v-12.5h-1.87v2.46a6.77 6.77 0 0 0-2.45-2.12 7.3 7.3 0 0 0-3.26-.68zm-162.79.03a7.69 7.69 0 0 0-7.83 7.87c0 2.2.72 4.06 2.18 5.56a7.36 7.36 0 0 0 5.49 2.25c1.18 0 2.27-.25 3.29-.74a6.1 6.1 0 0 0 2.44-2.02v2.36h1.87v-14.96h-1.87v2.4a6.24 6.24 0 0 0-2.4-2.02 7.07 7.07 0 0 0-3.17-.7zm22.96 0c-1.14 0-2.22.24-3.24.76a5.7 5.7 0 0 0-2.32 2.01v-2.45h-1.9v19.8h1.9v-7.2c.64.9 1.45 1.58 2.42 2.05.98.47 2.07.7 3.3.7a7.64 7.64 0 0 0 7.68-7.8 7.64 7.64 0 0 0-7.84-7.87zm32.81 0a7.69 7.69 0 0 0-7.83 7.87c0 2.2.73 4.06 2.19 5.56a7.34 7.34 0 0 0 5.48 2.25c1.18 0 2.28-.25 3.29-.74a6.1 6.1 0 0 0 2.44-2.02v2.36h1.87v-14.96H87.2v2.4a6.25 6.25 0 0 0-2.4-2.02 7.07 7.07 0 0 0-3.17-.7zm46.42 0a7.67 7.67 0 0 0-7.84 7.87c0 2.2.73 4.06 2.2 5.56a7.34 7.34 0 0 0 5.47 2.25c1.18 0 2.28-.25 3.3-.74a6.11 6.11 0 0 0 2.43-2.02v2.36h1.87v-14.96h-1.87v2.4a6.21 6.21 0 0 0-2.4-2.02 7.05 7.05 0 0 0-3.16-.7zm44.76.02c-1 0-1.88.16-2.66.49-.78.33-1.46.83-2.05 1.51v-1.7h-1.86v14.96h1.86v-7.28c0-1.3.05-2.2.14-2.71.1-.53.27-1 .5-1.4.39-.66.9-1.16 1.56-1.5a4.78 4.78 0 0 1 2.3-.53c1.48 0 2.56.4 3.23 1.2.68.8 1.02 2.08 1.02 3.84v8.38h1.9v-7.82c0-1.4-.08-2.46-.24-3.18a4.9 4.9 0 0 0-2.78-3.65c-.84-.4-1.82-.6-2.92-.6zm-11.6.3v14.96h1.92v-14.96zm27.5 1.4c1.52 0 2.83.6 3.95 1.81a6.18 6.18 0 0 1 1.67 4.37c0 1.6-.56 2.99-1.7 4.17a5.35 5.35 0 0 1-7.94 0 6.17 6.17 0 0 1-1.66-4.4c0-1.67.55-3.08 1.67-4.22a5.4 5.4 0 0 1 4.01-1.73zm-162.9.06c1.48 0 2.78.59 3.91 1.78a5.79 5.79 0 0 1 1.7 4.15 6.2 6.2 0 0 1-1.7 4.38 5.49 5.49 0 0 1-8.03.1 5.83 5.83 0 0 1-1.68-4.24c0-1.75.56-3.22 1.69-4.4a5.48 5.48 0 0 1 4.1-1.77zm23.04 0c1.6 0 2.97.59 4.1 1.78a6.09 6.09 0 0 1 1.7 4.4 5.82 5.82 0 0 1-5.73 5.94c-1.52 0-2.85-.6-3.97-1.81a6.23 6.23 0 0 1-1.69-4.38c0-1.58.56-2.97 1.69-4.15a5.21 5.21 0 0 1 3.9-1.78zm32.73 0c1.48 0 2.78.59 3.91 1.78a5.79 5.79 0 0 1 1.7 4.15 6.2 6.2 0 0 1-1.7 4.38 5.5 5.5 0 0 1-8.03.1 5.82 5.82 0 0 1-1.68-4.24c0-1.75.56-3.22 1.69-4.4a5.48 5.48 0 0 1 4.1-1.77zm46.41 0c1.48 0 2.79.59 3.92 1.78a5.79 5.79 0 0 1 1.7 4.15 6.2 6.2 0 0 1-1.7 4.38 5.27 5.27 0 0 1-3.97 1.8 5.84 5.84 0 0 1-5.74-5.94c0-1.75.56-3.22 1.68-4.4a5.48 5.48 0 0 1 4.11-1.77zm18.05 0c1.57 0 2.92.57 4.04 1.72a5.75 5.75 0 0 1 1.69 4.2c0 1.76-.57 3.23-1.7 4.41a5.43 5.43 0 0 1-8 .01 5.87 5.87 0 0 1-1.69-4.17c0-1.72.55-3.18 1.65-4.38a5.28 5.28 0 0 1 4.01-1.8z"/>
    <path fill="#f60" d="M115.07 140.07c-.87 0-1.5.2-1.93.6-.42.4-.63 1.01-.63 1.84v.21h-1v.88h1.05v6.95h.97v-6.95h1.64v-.88h-1.65v-.21c0-.56.12-.95.37-1.17.25-.24.67-.36 1.28-.37v-.9zm-83.26.12l3.9 10.36h.8l3.9-10.36h-1l-3.3 8.83-3.28-8.83zm9.22 0v1.62h1v-1.62zm6.77 0v1.62h1v-1.62zm17.12 0v2.53h-1.49v1.01h1.5v6.82h1v-6.82h1.48v-1h-1.49v-2.54zm12.5 0v10.36h1.01V140.2zm2.65 0v10.36h1V140.2zm63.17 0v2.53h-1.49v1.01h1.49v6.82h1v-6.82h1.49v-1h-1.48v-2.54zm3.32 0v1.62h1v-1.62zm9.21 0v3.77a3.36 3.36 0 0 0-1.29-1.04 3.79 3.79 0 0 0-1.68-.37 3.97 3.97 0 0 0-4.01 4.08 4.04 4.04 0 0 0 4.01 4.12 3.7 3.7 0 0 0 2.97-1.39v1.2h1.01v-10.37zm-69.37 2.32c-1.2 0-2.2.4-2.97 1.17a4.03 4.03 0 0 0-1.15 2.95c0 1.14.4 2.12 1.18 2.92a3.87 3.87 0 0 0 2.89 1.22c.86 0 1.61-.23 2.26-.7a4.5 4.5 0 0 0 1.53-2H89a2.9 2.9 0 0 1-2.68 1.74 2.9 2.9 0 0 1-2.07-.79 3.04 3.04 0 0 1-.93-2.07h7.07v-.07c0-1.3-.38-2.35-1.12-3.15a3.7 3.7 0 0 0-2.87-1.22zm75.67 0a4 4 0 0 0-2.96 1.17 4.02 4.02 0 0 0-1.16 2.95c0 1.14.4 2.12 1.19 2.92a3.87 3.87 0 0 0 2.89 1.22c.86 0 1.6-.23 2.26-.7a4.45 4.45 0 0 0 1.52-2h-1.14a2.89 2.89 0 0 1-2.68 1.74 2.91 2.91 0 0 1-3-2.86h7.07v-.07c0-1.3-.37-2.35-1.12-3.15a3.71 3.71 0 0 0-2.87-1.22zm-101.38.02c-.63 0-1.17.21-1.62.64-.44.42-.66.94-.66 1.55 0 .55.13.97.4 1.3.26.32.83.64 1.7.94.54.2.91.41 1.12.64.2.23.3.54.3.91s-.12.68-.38.93-.6.37-.98.37c-.41 0-.76-.16-1.04-.48a1.81 1.81 0 0 1-.42-1.22v-.02h-1.03c.02.82.25 1.46.7 1.95a2.3 2.3 0 0 0 1.77.71 2.5 2.5 0 0 0 1.79-.66c.47-.44.7-1 .7-1.67 0-.53-.11-.97-.35-1.32a2.35 2.35 0 0 0-1.07-.83 9.75 9.75 0 0 0-.73-.24c-.36-.11-.64-.23-.83-.35-.2-.12-.36-.27-.45-.43-.09-.16-.13-.35-.13-.58 0-.33.1-.6.33-.82.21-.22.49-.33.82-.33.36 0 .65.1.85.3.22.2.34.5.36.86h1.08a2.24 2.24 0 0 0-.64-1.59 2.2 2.2 0 0 0-1.6-.56zm11.23.02a4.02 4.02 0 0 0-4.1 4.12c0 1.15.38 2.13 1.15 2.91a3.85 3.85 0 0 0 2.87 1.17c.61 0 1.19-.12 1.72-.38s.96-.61 1.27-1.06v1.24h.98v-7.83h-.98v1.25c-.33-.45-.75-.8-1.25-1.05a3.73 3.73 0 0 0-1.66-.37zm26.96 0a4 4 0 0 0-4.1 4.12c0 1.15.38 2.13 1.14 2.91a3.84 3.84 0 0 0 2.87 1.17c.62 0 1.19-.12 1.72-.38.54-.26.96-.61 1.27-1.06v1.24h.99v-7.83h-.99v1.25c-.33-.45-.75-.8-1.25-1.05a3.75 3.75 0 0 0-1.65-.37zm24.61 0a4.02 4.02 0 0 0-4.1 4.12c0 1.15.39 2.13 1.15 2.91a3.85 3.85 0 0 0 2.87 1.17c.61 0 1.18-.12 1.72-.38.53-.26.96-.61 1.27-1.06v1.24h.98v-7.83h-.98v1.25c-.33-.45-.75-.8-1.25-1.05a3.72 3.72 0 0 0-1.66-.37zm-69.62.02c-.52 0-.98.08-1.4.25-.4.17-.75.43-1.06.8v-.9h-.97v7.83h.97v-3.8c0-.68.02-1.16.07-1.43s.14-.52.27-.73c.2-.34.46-.6.8-.78.35-.19.75-.28 1.2-.28.79 0 1.35.2 1.7.63.36.41.53 1.09.53 2v4.4h1v-4.1c0-.74-.05-1.3-.13-1.67a2.53 2.53 0 0 0-1.45-1.9 3.5 3.5 0 0 0-1.53-.32zm78.52 0c-.51 0-.97.09-1.38.26-.4.18-.76.44-1.05.78v-.89h-1v7.83h1v-3.8c0-.68.02-1.16.07-1.43s.14-.52.26-.73c.2-.34.47-.6.81-.78.35-.19.75-.28 1.2-.28.76 0 1.32.22 1.68.65.37.42.55 1.09.55 1.99v4.38h.95v-3.8c0-.68.03-1.16.08-1.43s.13-.52.25-.73c.2-.34.47-.6.81-.78a2.4 2.4 0 0 1 1.18-.28c.77 0 1.33.22 1.67.66.34.44.51 1.17.51 2.2v4.16h.96v-3.95c0-1.41-.24-2.44-.72-3.07-.49-.64-1.26-.96-2.32-.96-.59 0-1.11.12-1.59.35-.47.24-.86.57-1.18 1.03a2.74 2.74 0 0 0-1.11-1 3.53 3.53 0 0 0-1.63-.38zm38.25 0c-.52 0-.98.08-1.4.25-.4.17-.75.43-1.06.8v-.9h-.98v7.83h.98v-3.8c0-.68.02-1.16.07-1.43s.14-.52.27-.73c.2-.34.46-.6.8-.78.35-.19.75-.28 1.2-.28.79 0 1.35.2 1.7.63.36.41.53 1.09.53 2v4.4h1v-4.1c0-.74-.05-1.3-.13-1.67a2.57 2.57 0 0 0-1.45-1.9 3.52 3.52 0 0 0-1.53-.32zm-76.35.04c-.39.01-.73.1-1.02.25-.3.17-.56.42-.8.77v-.9h-.95v7.82h1.01v-4.72c0-.73.14-1.25.4-1.56.28-.33.74-.52 1.37-.57zm12.84 0c-.39.01-.73.1-1.03.25-.29.17-.55.42-.8.77v-.9h-.95v7.82h1.02v-4.72c0-.73.14-1.25.4-1.56.28-.33.73-.52 1.37-.57zm11.78 0c-.39.01-.73.1-1.02.25-.3.17-.56.42-.81.77v-.9h-.94v7.82h1.01v-4.72c0-.73.14-1.25.4-1.56.28-.33.74-.52 1.37-.57zm-77.88.11v7.83h1v-7.83zm6.77 0v7.83h1v-7.83zm98.76 0v7.83h1v-7.83zm-60.31.74c.81 0 1.47.22 1.98.67.5.44.85 1.1 1.05 1.97h-5.93a3.1 3.1 0 0 1 .97-1.92 2.75 2.75 0 0 1 1.93-.72zm75.67 0c.81 0 1.48.22 1.98.67.51.44.86 1.1 1.05 1.97h-5.93a3.1 3.1 0 0 1 .97-1.92 2.76 2.76 0 0 1 1.93-.72zm-90.02.02c.77 0 1.45.32 2.04.94a3.24 3.24 0 0 1 0 4.46 2.86 2.86 0 0 1-4.2.05 3.04 3.04 0 0 1-.88-2.22c0-.9.3-1.68.89-2.3.59-.61 1.3-.93 2.15-.93zm26.94 0c.78 0 1.46.32 2.06.94.58.61.88 1.33.88 2.17 0 .89-.3 1.66-.88 2.29a2.86 2.86 0 0 1-4.2.05 3.05 3.05 0 0 1-.89-2.22c0-.9.3-1.68.89-2.3.59-.61 1.3-.93 2.14-.93zm24.62 0c.77 0 1.46.32 2.05.94a3.24 3.24 0 0 1 0 4.46 2.86 2.86 0 0 1-4.2.05 3.05 3.05 0 0 1-.88-2.22c0-.9.3-1.68.88-2.3.6-.61 1.32-.93 2.15-.93zm29.37 0c.8 0 1.5.32 2.08.95.6.63.89 1.4.89 2.28 0 .84-.3 1.56-.89 2.18a2.84 2.84 0 0 1-4.2 0 3.22 3.22 0 0 1-.88-2.3 3 3 0 0 1 .88-2.2c.6-.6 1.3-.9 2.12-.9zM85.34 8.22h4.38v4.25l-.93.13-3.98-.8-.8-.13V8.22h-.93v3.19l-.8-.13V8.22h-.79v2.92l-.93-.13v-2.8h-.8v2.54l-.8-.14V8.2h-.92v2.27l-1.07-.27V3.57l1.07-.26v2.26h.93v-2.4l.8-.13v2.53h.8V2.9l.92-.26v2.92h.8V2.5l.8-.13v3.19H84V2.25l.8-.27 3.98-.8.93.14v4.25h-4.38zM96.09 6.1V4.9h-4.38l-.26 1.2h-5.31v1.6h5.3l.27 1.19h4.38zm3.2 0h-2.8v.53h2.8zm0-1.2h-2.8v.67h2.8zm0-1.06h-2.8v.53h2.8zm-2.8-.53h2.8V2.1h-9.04v3.46h.8l.13-.67.13-.53h4.78V3.3zm2.8 4.38h-2.8v-.53h2.8zm0 1.2h-2.8v-.67h2.8zm0 1.06h-2.8v-.53h2.8zm-2.8.53h2.8v1.2h-9.04V8.21h.8l.13.67.13.53h4.78v1.06z"/>
  </g>
</svg>
